<svg width="45" height="43" viewBox="0 0 45 43" fill="none" xmlns="http://www.w3.org/2000/svg">
<rect x="0.986816" y="0.576172" width="43.1958" height="41.6675" rx="7" fill="#038882"/>
<path d="M18.658 25.1982V29.2741C18.658 29.5588 18.8588 29.811 19.1562 29.9007C19.2305 29.9226 19.3068 29.9332 19.3821 29.9332C19.6081 29.9332 19.8263 29.8365 19.9653 29.6643L22.5849 26.4198L18.658 25.1982Z" fill="white"/>
<path d="M31.1621 12.0448C30.974 11.9213 30.7269 11.9047 30.5224 12.0039L12.1151 20.9056C11.8975 21.0109 11.7691 21.226 11.7871 21.4525C11.8059 21.6798 11.9687 21.8738 12.2002 21.9472L17.3174 23.567L28.2153 14.9381L19.7824 24.3465L28.3585 27.061C28.4223 27.0807 28.4894 27.0913 28.5565 27.0913C28.6677 27.0913 28.7782 27.0632 28.8755 27.0087C29.031 26.9208 29.1365 26.7731 29.1635 26.6072L31.4133 12.5918C31.4468 12.3797 31.3503 12.1691 31.1621 12.0448Z" fill="white"/>
</svg>
